<svg width="474" height="756" viewBox="0 0 474 756" fill="none" xmlns="http://www.w3.org/2000/svg">
<g clip-path="url(#clip0_925_552)">
<path d="M157.495 267.072C158.197 268.802 159.25 269.898 160.379 271.297C161.63 272.855 164.117 271.023 163.217 269.278C160.822 264.634 161.34 257.755 163.812 253.241C166.315 248.683 170.648 245.611 174.966 243.001C178.383 240.924 181.923 239.006 185.234 236.742C184.304 237.982 183.342 239.208 182.335 240.405C179.757 243.52 176.629 246.419 174.508 249.895C172.524 253.14 170.907 256.716 170.571 260.538C170.221 264.562 171.38 268.499 172.28 272.379C173.15 276.143 173.287 279.273 171.075 282.604C169.015 285.72 167.169 288.95 165.018 292.008C162.119 296.104 159.418 300.012 159.357 305.262C159.326 309.011 160.791 312.574 161.356 316.208C167.947 314.997 174.63 314.232 181.374 314.405C182.473 314.434 183.571 314.478 184.654 314.535C184.761 312.891 184.929 311.261 185.188 309.632C185.677 306.488 186.531 303.488 187.569 300.473C187.874 299.565 189.262 299.853 189.262 300.762C189.262 303.776 189.43 306.79 189.583 309.805C189.659 311.478 189.827 313.165 190.01 314.838C192.054 314.968 194.084 315.083 196.128 315.17C196.25 313.569 196.449 311.968 196.739 310.396C196.8 310.064 197.395 309.92 197.44 310.338C197.624 312.011 198.005 313.655 198.478 315.256C202.201 315.386 205.939 315.444 209.662 315.401C211.813 315.372 213.965 315.314 216.116 315.213C217.26 315.155 218.39 315.098 219.534 315.026C220.098 314.982 220.678 314.953 221.243 314.91C221.502 314.896 221.761 314.867 222.021 314.852C222.112 314.838 222.25 314.852 222.372 314.852C223.364 314.867 224.493 314.622 225.454 314.535C226.491 314.434 227.529 314.319 228.551 314.189C230.718 313.929 232.869 313.598 235.005 313.223C239.293 312.458 243.565 311.507 247.746 310.309C249.317 309.862 250.919 309.56 252.521 309.185C252.521 308.882 252.521 308.564 252.521 308.247C252.506 306.055 252.46 303.863 252.414 301.671C251.606 268.153 247.7 234.722 249.699 201.147C249.943 196.951 248.447 192.884 243.534 193.388C239.033 193.85 234.563 194.6 230.062 195.09C220.785 196.114 211.462 196.604 202.155 195.941C200.233 195.797 199.18 197.196 199.043 198.71C198.707 198.797 198.402 198.955 198.158 199.143C195.899 200.931 195.777 205.301 195.274 207.955C194.679 211.084 193.946 214.185 192.878 217.185C190.88 222.824 187.523 227.396 182.747 230.915C173.806 237.492 162.241 241.184 157.709 252.375C156.397 255.606 155.97 259.053 156.321 262.5C156.488 264.101 156.885 265.6 157.495 267.072Z" fill="#754A34"/>
<path d="M370.443 275.682C369.405 271.427 367.01 267.288 363.775 264.317C360.068 260.957 355.567 259.341 350.806 257.957C346.046 256.572 341.957 254.841 338.966 250.731C336.128 246.808 334.206 241.948 332.817 237.362C329.72 227.079 328.896 216.334 326.546 205.892C326.226 204.436 325.844 202.936 325.448 201.436C323.479 194.239 320.443 186.855 315.133 181.692C315.027 181.504 314.904 181.331 314.798 181.144C314.538 180.769 314.203 180.552 313.852 180.423C314.02 178.49 312.005 176.312 309.656 177.437L301.706 181.216L300.791 181.649L299.021 182.485L296.015 183.927C295.802 184.028 295.603 184.129 295.39 184.201C294.261 184.735 293.101 185.24 291.941 185.759C291.392 186.004 290.843 186.249 290.294 186.509C288.249 187.432 286.266 188.427 284.45 189.682C284.19 189.855 283.916 190.028 283.656 190.23C279.857 193.028 279.201 197.354 278.713 201.71C278.255 205.705 278.026 209.729 277.904 213.738C277.874 214.762 277.843 215.786 277.828 216.81C277.797 218.396 277.767 219.983 277.736 221.569C277.691 224.901 277.645 228.247 277.553 231.564C277.538 231.564 277.553 231.578 277.553 231.578C277.462 234.91 277.324 238.227 277.096 241.544C277.096 241.559 277.096 241.559 277.096 241.559C276.989 243.217 276.836 244.832 276.684 246.491C276.424 249.073 276.104 251.64 275.722 254.192C274.853 260.048 273.678 265.889 272.244 271.629C272.183 271.845 272.122 272.047 272.06 272.278C271.832 273.143 271.618 274.009 271.374 274.874C271.374 274.917 271.359 274.961 271.343 275.004C271.237 275.379 271.13 275.768 271.023 276.143C270.703 277.398 270.321 278.653 269.94 279.907C268.368 285.215 266.522 290.464 264.462 295.628C263.165 298.887 261.792 302.118 260.312 305.305C259.534 306.978 259.961 308.939 261.914 309.559C268.078 311.507 274.349 313.612 280.666 315.3C281.673 315.069 282.695 314.838 283.702 314.651C283.717 314.636 283.733 314.636 283.748 314.636C283.778 314.636 283.794 314.622 283.824 314.622C284.267 314.535 284.709 314.434 285.152 314.362C285.487 314.276 285.838 314.203 286.174 314.131C286.174 314.131 286.189 314.146 286.189 314.131C287.395 313.886 288.569 313.612 289.76 313.381C290.797 313.151 291.819 312.949 292.857 312.747C293.299 312.66 293.742 312.574 294.184 312.502C294.215 312.386 294.261 312.285 294.276 312.17C294.779 309.733 295.191 307.266 295.619 304.815C296.488 307.064 296.915 309.473 296.885 311.939C296.885 311.997 296.9 312.055 296.915 312.127C297.602 312.055 298.273 311.982 298.96 311.925C299.052 311.91 299.326 311.896 299.555 311.881C299.57 311.867 299.586 311.867 299.601 311.881C299.631 311.881 299.662 311.867 299.677 311.867H299.723C299.799 311.853 299.845 311.853 299.845 311.853C300.089 311.838 300.318 311.809 300.562 311.781C300.944 311.752 301.325 311.708 301.691 311.68C304.895 311.362 308.084 310.973 311.258 310.526C312.601 310.324 313.958 310.108 315.301 309.877C315.5 304.742 315.728 299.608 315.927 294.474C316.11 299.204 316.079 303.949 316.034 308.737C316.034 309.069 316.11 309.43 316.278 309.733C321.038 308.925 325.768 307.973 330.544 307.194C336.998 306.141 343.437 305.478 349.936 306.141C349.952 306.127 349.967 306.127 349.967 306.113C350.272 304.166 350.364 302.175 350.348 300.185C355.429 295.483 357.474 287.407 355.551 280.917C354.361 276.922 352.164 273.951 348.823 271.456C345.649 269.091 342.155 267.201 338.997 264.778C335.411 262.024 333.58 258.548 332.359 254.308C331.764 252.245 331.169 250.183 330.574 248.135C332.42 252.462 335.014 256.414 338.829 259.37C342.735 262.384 347.587 263.322 352.21 264.778C356.299 266.076 359.808 268.312 362.417 271.744C368.261 279.388 366.934 290.883 359.991 297.474C359.32 298.108 360.129 299.392 360.953 298.829C368.536 293.666 372.64 284.681 370.443 275.682ZM347.129 276.547C350.821 281.465 351.523 287.796 349.357 293.248C349.158 290.998 348.807 288.734 348.151 286.542C346.412 280.744 343.116 275.71 339.805 270.72C339.439 270.143 339.042 269.567 338.676 268.99C341.743 271.225 344.81 273.461 347.129 276.547ZM325.509 230.843C325.631 231.651 325.768 232.487 325.905 233.295C325.753 232.602 325.615 231.91 325.478 231.218C324.059 224.18 323.251 217.041 322.457 209.931C322.396 209.383 322.335 208.835 322.274 208.301C323.724 215.772 324.319 223.343 325.509 230.843Z" fill="#754A34"/>
<path d="M324.716 201.176C324.671 200.902 324.609 200.614 324.548 200.34C321.329 184.562 312.068 170.024 296.245 163.102C280.606 156.251 262.327 156.41 245.559 158.4C236.251 159.51 227.264 161.933 219.33 166.75C212.235 171.034 206.026 176.255 202.211 183.48C200.014 187.648 198.549 192.119 197.481 196.662C196.291 201.623 195.101 206.57 194.14 211.575C193.88 212.945 193.606 214.329 193.346 215.714C193.346 215.728 193.346 215.757 193.148 215.772V215.8C191.958 222.896 190.646 230.021 190.096 237.16V237.174C189.501 238.948 189.288 240.751 189.135 242.539C188.372 243.708 187.914 244.933 187.976 246.217C187.96 246.217 187.976 246.231 187.976 246.231C187.976 246.491 188.006 246.765 188.067 247.039C188.555 249.159 190.173 250.169 192.126 250.645C192.843 250.832 193.59 250.933 194.369 251.005C195.803 251.135 197.268 251.135 198.458 251.193C199.465 251.25 200.487 251.294 201.494 251.337C202.409 251.395 203.34 251.438 204.256 251.467C204.79 251.51 205.324 251.539 205.873 251.553C209.184 251.726 212.495 251.871 215.791 252C220.139 252.217 224.503 252.39 228.851 252.563C230.926 252.649 233.001 252.721 235.076 252.794C239.486 252.967 243.896 253.096 248.32 253.241C248.9 253.269 249.48 253.284 250.06 253.298C251.54 253.356 253.02 253.399 254.515 253.428C255.964 253.486 257.429 253.529 258.894 253.572C264.249 253.731 269.62 253.818 274.976 253.947C278.256 254.019 281.521 254.12 284.771 254.265C285.885 254.322 286.984 254.38 288.097 254.438C292.385 254.683 296.657 255.058 300.884 255.692C303.34 256.039 305.797 256.5 308.192 257.048C308.955 257.221 309.672 257.394 310.42 257.596C312.907 258.245 315.378 258.995 317.789 259.918C318.11 260.033 318.43 260.149 318.735 260.264C319.33 260.509 319.925 260.509 320.475 260.336C321.695 259.976 322.641 258.779 322.763 257.582C322.794 257.236 322.84 256.889 322.87 256.543C323.755 248.121 324.777 239.684 325.464 231.232C325.479 231.102 325.494 230.987 325.494 230.857C325.555 230.107 325.616 229.357 325.678 228.607C326.349 219.478 326.44 210.205 324.716 201.176Z" fill="#754A34"/>
<path d="M309.091 323.361C307.627 323.462 306.055 323.577 304.453 323.621C303.385 323.678 302.286 323.693 301.188 323.664C300.761 323.664 300.303 323.649 299.876 323.635C293.91 323.361 288.005 321.919 284.877 317.058C284.862 317.058 284.862 317.044 284.862 317.044C284.816 316.986 284.786 316.929 284.74 316.871C284.633 316.698 284.526 316.539 284.42 316.352C284.313 316.164 284.206 315.991 284.13 315.789C284.099 315.76 284.084 315.732 284.084 315.688C284.008 315.544 283.931 315.385 283.87 315.241C283.779 315.054 283.702 314.866 283.641 314.679C283.565 314.477 283.504 314.304 283.443 314.102C283.321 313.799 283.229 313.496 283.153 313.179V314.347C283.062 313.943 282.955 313.554 282.878 313.15C282.604 311.866 282.451 310.54 282.344 309.27C282.024 305.852 281.841 302.391 281.734 298.959C281.658 296.492 281.627 294.041 281.643 291.56V292.526C281.643 291.646 281.658 290.767 281.673 289.887C281.688 288.892 281.704 287.897 281.749 286.916C281.749 286.656 281.765 286.368 281.78 286.108C281.856 283.959 281.963 281.825 282.116 279.676C282.222 278.032 280.147 276.344 278.423 276.993C277.981 277.167 277.523 277.325 277.065 277.484C276.76 277.599 276.44 277.715 276.135 277.801C275.509 278.017 274.899 278.205 274.304 278.392C273.388 278.666 272.457 278.926 271.511 279.157C270.825 279.33 270.153 279.474 269.452 279.633C268.323 279.878 267.193 280.094 266.064 280.282C265.5 280.383 264.92 280.469 264.355 280.527C263.776 280.613 263.211 280.686 262.631 280.743C262.158 280.801 261.701 280.844 261.228 280.887C260.419 280.96 259.58 281.017 258.771 281.061C258.344 281.075 257.917 281.089 257.489 281.104C256.925 281.118 256.345 281.133 255.765 281.133C254.468 281.133 253.156 281.089 251.859 281.003C251.447 280.974 251.051 280.96 250.623 280.916C250.532 280.916 250.456 280.902 250.379 280.887C249.891 280.844 249.403 280.801 248.915 280.743C248.442 280.7 247.953 280.642 247.48 280.57C246.336 280.426 245.207 280.253 244.078 280.022C243.437 279.907 242.796 279.777 242.155 279.633C241.514 279.489 240.874 279.359 240.233 279.186C238.722 278.811 237.578 279.503 237.029 280.527C236.693 280.556 236.357 280.642 236.067 280.801C235.884 280.931 235.716 281.061 235.533 281.19C235.228 281.479 234.999 281.854 234.893 282.258C234.572 282.993 234.45 283.801 234.389 284.58C234.328 285.358 234.435 286.18 234.633 286.945C234.755 287.349 235.015 287.752 235.366 288.07C235.381 288.142 235.381 288.214 235.396 288.286C235.488 288.776 235.579 289.267 235.64 289.757C235.778 290.637 235.854 291.531 235.9 292.425V291.964C235.93 292.555 235.945 293.146 235.945 293.723C235.945 294.387 235.93 295.05 235.884 295.714C235.854 296.247 235.823 296.766 235.762 297.3C235.778 297.329 235.762 297.372 235.747 297.401C235.716 297.747 235.671 298.122 235.625 298.468C235.64 298.483 235.64 298.497 235.625 298.511C235.579 298.915 235.533 299.29 235.457 299.68C235.35 300.329 235.228 300.978 235.091 301.627C234.862 302.766 234.557 303.862 234.206 304.958C234.16 305.117 234.099 305.29 234.053 305.463C233.641 306.732 233.168 307.958 232.634 309.184C231.841 311.044 230.895 312.818 229.812 314.535V313.785C228.439 315.991 226.806 318.01 224.975 319.784C223.388 321.356 221.649 322.741 219.757 323.952C215.942 326.419 211.609 328.164 206.955 329.101C206.94 329.101 206.925 329.101 206.91 329.115C205.765 329.389 204.774 330.788 205.231 331.899C205.323 332.115 205.414 332.317 205.506 332.534C206.65 335.259 207.963 337.899 209.351 340.509C210.495 342.687 211.685 344.836 212.83 347.013C214.127 349.465 215.363 351.96 216.537 354.455C217.834 357.167 219.04 359.907 220.184 362.676C221.099 364.897 221.969 367.176 222.915 369.397C223.785 371.445 225.54 373.089 227.782 373.695C229.4 374.127 231.093 374.3 232.787 374.416C233.58 374.473 234.359 374.517 235.137 374.589C235.335 374.603 235.533 374.618 235.732 374.632L244.642 375.396C256.513 376.42 268.399 377.315 280.285 378.252C280.62 378.281 280.925 378.31 281.261 378.324C283.672 378.526 286.067 378.714 288.463 378.872C289.271 378.915 290.095 378.944 290.904 378.887C291.636 378.843 292.369 378.742 293.071 378.555C294.078 378.281 295.024 377.848 295.863 377.127C297.572 375.685 298.197 373.579 298.777 371.575C299.571 368.878 300.318 366.181 301.02 363.469C302.149 359.128 303.156 354.744 304.163 350.374C304.545 348.614 304.957 346.84 305.353 345.081C305.43 344.764 305.506 344.446 305.597 344.129C305.765 343.422 305.948 342.701 306.116 341.995C306.589 340.076 307.093 338.173 307.611 336.269C308.039 334.682 308.466 333.11 308.924 331.538C309.107 330.947 309.305 330.428 309.564 329.923C310.068 328.928 310.724 328.063 311.411 327.039C312.372 325.553 311.029 323.231 309.091 323.361Z" fill="#E5B296"/>
<path d="M284.444 317.246C278.051 318.083 271.46 318.155 265.097 317.78C253.669 317.088 241.829 315.011 232.445 308.91C235.299 302.435 236.382 295.209 235.085 288.286C235.07 288.214 235.07 288.142 235.054 288.07C234.719 287.767 234.444 287.349 234.322 286.945C234.124 286.181 234.032 285.359 234.078 284.58C234.139 283.801 234.261 282.993 234.581 282.258C234.688 281.854 234.902 281.494 235.222 281.191C235.405 281.061 235.573 280.931 235.756 280.801C236.046 280.628 236.382 280.542 236.717 280.527C237.267 279.503 238.411 278.797 239.922 279.186C252.616 282.402 265.982 281.566 278.173 276.979C279.897 276.33 281.972 278.032 281.865 279.676C281.408 286.224 281.27 292.772 281.484 299.319C281.591 302.464 281.743 305.608 282.049 308.737C282.293 311.391 282.705 314.189 284.017 316.568C284.154 316.799 284.276 317.016 284.444 317.246Z" fill="#A96C60"/>
<path d="M352.976 364.623C352.777 364.349 352.579 364.061 352.335 363.816C350.87 362.157 348.734 361.09 346.751 360.066C346.171 359.763 345.591 359.46 344.996 359.157C343.211 358.249 341.41 357.355 339.579 356.504C334.697 354.239 329.692 352.206 324.627 350.331C322.277 349.466 319.927 348.629 317.547 347.865C313.839 346.639 310.101 345.543 306.333 344.533C305.89 344.403 305.448 344.288 304.99 344.173C302.64 343.552 300.29 342.976 297.91 342.442C296.507 342.125 295.072 341.807 293.653 341.519C291.655 341.101 289.656 340.726 287.626 340.351C287.184 340.264 286.726 340.178 286.269 340.106C285.673 340.005 285.063 339.889 284.468 339.803C266.662 336.889 248.46 336.168 230.455 337.726C230.028 337.755 229.601 337.798 229.158 337.841C228.975 337.856 228.792 337.87 228.609 337.899C227.282 338.029 225.954 338.159 224.627 338.303C219.531 338.88 214.45 339.615 209.43 340.553C207.401 340.928 205.371 341.331 203.342 341.793C201.298 342.226 199.268 342.702 197.239 343.206C194.065 344 190.77 344.836 187.505 345.802C181.432 347.591 175.481 349.898 170.507 353.489C170.263 353.648 170.019 353.821 169.775 354.009C169.409 354.283 169.043 354.585 168.692 354.888C166.433 356.835 164.633 359.201 163.504 361.869C163.061 362.273 162.802 362.849 162.894 363.542C162.817 363.801 162.726 364.061 162.65 364.306C162.344 365.618 162.955 366.628 163.901 367.191C165.442 372.469 166.952 377.776 168.402 383.084C169.485 387.007 170.538 390.944 171.575 394.881C171.575 394.896 171.575 394.91 171.591 394.924C172.903 399.915 174.169 404.948 175.39 409.967C175.39 409.996 175.39 410.025 175.405 410.039C176.794 415.765 178.151 421.49 179.433 427.245C179.83 428.947 180.227 430.648 180.593 432.35C182.881 442.633 185.048 452.974 187.032 463.329C189.503 476.151 191.7 489.044 193.44 501.981C193.806 504.707 194.157 507.404 194.477 510.129C195.561 519.071 196.43 528.027 197.01 536.998C197.193 539.926 197.27 542.839 197.285 545.767C197.3 548.233 196.736 551.492 197.926 553.786C198.49 554.882 199.299 555.545 200.26 555.963C201.328 556.425 202.579 556.598 203.83 556.713C204.303 556.757 204.792 556.785 205.265 556.829C208.408 557.103 211.551 557.348 214.679 557.55C221.057 557.968 227.434 558.228 233.827 558.3C251.465 558.574 269.119 557.651 286.635 555.617C287.26 555.56 287.886 555.487 288.496 555.401C289 555.343 289.488 555.285 289.991 555.213C290.037 555.213 290.098 555.199 290.144 555.199C293.272 554.81 296.384 554.391 299.497 553.93C302.045 553.555 304.685 553.18 306.79 551.666C306.851 551.622 306.912 551.579 306.973 551.536C308.453 550.411 309.247 548.896 309.827 547.281C310.086 546.632 310.269 545.998 310.483 545.334C310.529 545.175 310.574 545.046 310.62 544.887C311.49 542.046 312.329 539.176 313.138 536.32C315.991 526.455 318.722 516.547 321.438 506.639L322.811 501.591C328.655 480.117 334.163 458.57 339.381 436.951C339.747 435.451 340.129 433.951 340.48 432.451C343.272 420.899 345.942 409.303 348.536 397.708C349.344 394.088 350.153 390.454 350.931 386.834C350.947 386.805 350.946 386.776 350.946 386.747C351.221 385.536 351.465 384.324 351.74 383.113C351.862 382.55 351.984 382.002 352.091 381.454C352.182 381.079 352.259 380.69 352.35 380.3C352.762 378.31 353.22 376.334 353.632 374.344C353.8 373.565 353.922 372.757 354.059 371.979C354.486 369.469 354.471 366.844 352.976 364.623Z" fill="#E5B296"/>
<path d="M318.932 401.27C318.841 398.847 318.673 396.425 318.444 394.002C316.582 374.2 309.93 355.177 303.567 336.356C301.721 330.904 299.921 325.424 298.029 319.972C297.983 319.842 297.937 319.727 297.892 319.597C295.954 318.948 294.047 318.213 292.185 317.362C289.576 316.165 287.059 314.852 284.633 313.367C284.556 313.352 284.465 313.324 284.388 313.309C284.846 336.269 284.861 359.316 280.086 381.872C279.811 381.959 279.536 382.046 279.277 382.118C277.263 382.666 275.234 383.185 273.189 383.661C269.115 384.613 264.996 385.42 260.861 386.069C252.576 387.367 244.23 387.93 235.838 388.189C233.915 388.247 233.046 389.776 233.229 391.146C232.542 392.156 232.573 393.641 233.946 394.521C234.327 394.766 234.709 394.982 235.09 395.213C236.28 397.088 238.005 398.602 239.927 399.958C242.963 402.092 246.259 403.938 249.555 405.684C256.36 409.289 263.561 412.246 270.961 414.582C271.373 414.943 271.892 415.173 272.564 415.173C283.152 415.13 293.741 414.077 304.132 412.188C306.665 411.727 309.213 411.222 311.715 410.645C314.202 410.068 316.582 409.332 317.895 407.068C318.947 405.28 318.993 403.246 318.932 401.27Z" fill="#A96C60"/>
<path d="M386.539 755.999H286.417C282.923 739.327 279.078 722.771 274.821 706.358C272.929 699.089 270.93 691.849 268.87 684.638C267.741 680.701 266.506 676.778 265.346 672.826C261.715 673.115 262.508 673.057 258.877 673.346C257.824 682.359 257.564 691.561 257.519 700.575C257.442 713.641 258.022 726.693 258.648 739.746C258.907 745.154 259.136 750.562 259.35 755.999H158.45C154.894 736.702 151.66 717.319 149.234 697.863C146.991 679.864 145.343 661.663 145.312 643.506C145.312 638.588 145.419 633.67 145.663 628.737C145.923 624.021 146.32 619.32 146.945 614.647C147.738 608.59 148.883 602.576 150.439 596.634C152.835 587.519 156.161 578.663 160.067 570.024C160.448 569.174 160.845 568.323 161.242 567.472C161.837 566.188 162.462 564.905 163.088 563.635C165.01 559.684 167.055 555.804 169.191 551.939C169.679 551.03 170.183 550.136 170.702 549.213C176.423 539.074 182.709 529.21 189.011 519.388C190.857 516.532 192.673 513.662 194.489 510.807C194.763 510.388 195.038 509.956 195.297 509.523C203.689 496.255 211.806 482.842 219.069 468.925C219.527 468.074 220.396 467.756 221.266 467.828C221.815 467.872 222.365 468.074 222.792 468.391C228.056 467.482 233.335 466.631 238.614 465.853C239.743 465.694 240.857 465.55 241.971 465.391C246.548 464.728 251.156 464.136 255.749 463.603C261.394 462.91 267.07 462.319 272.731 461.771C275.63 461.497 278.513 461.237 281.428 461.021C281.931 460.978 282.435 460.935 282.938 460.891C283.869 460.805 284.815 460.733 285.776 460.675C285.852 460.675 285.913 460.661 285.99 460.661C286.707 460.632 287.317 460.689 287.958 460.776C288.736 460.271 289.789 460.213 290.659 461.108C292.444 462.939 294.198 464.814 295.892 466.732C298.7 469.891 301.339 473.179 303.811 476.568C310.799 486.174 316.551 496.615 321.48 507.331C321.541 507.461 321.602 507.591 321.663 507.706C323.326 511.297 324.882 514.932 326.362 518.551C330.787 529.383 334.357 540.416 337.577 551.55C337.851 552.501 338.126 553.468 338.4 554.42C340.445 561.674 342.367 568.957 344.29 576.255C347.036 586.682 349.798 597.109 352.529 607.537C354.925 616.608 357.305 625.68 359.67 634.766C360.433 637.65 361.18 640.549 361.928 643.448C367.848 666.423 373.844 689.383 378.834 712.56C381.321 724.126 383.564 735.736 385.41 747.404C385.791 749.971 386.341 752.971 386.539 755.999Z" fill="#413432"/>
<path d="M175.993 756H170.775C170.287 753.822 169.814 751.659 169.356 749.481C163.512 722.18 159.774 694.46 157.622 666.669C157.104 659.905 156.57 653.083 156.219 646.29C155.853 639.353 155.639 632.401 155.776 625.464C155.822 622.969 155.914 620.416 156.066 617.864C156.707 607.422 158.568 596.735 164 587.692C165.435 585.313 169.92 586.899 168.822 589.538C166.014 596.274 163.832 603.124 162.703 610.292C162.2 613.393 161.895 616.508 161.681 619.623C161.422 623.546 161.345 627.483 161.3 631.406C161.223 636.771 161.239 642.136 161.345 647.487C161.803 669.625 163.802 691.72 167.372 713.599C169.661 727.848 172.56 741.982 175.993 756Z" fill="#7B5F5C"/>
<path d="M306.908 756H301.751C297.311 740.294 292.902 724.588 288.477 708.868C286.448 701.671 284.556 694.417 282.099 687.336C280.924 683.99 279.612 680.658 278.025 677.471C277.217 675.827 276.332 674.211 275.37 672.639C274.409 671.038 273.311 669.639 272.761 667.851C272.288 666.25 274.455 664.346 276.042 665.486C279.399 667.894 281.275 672.279 282.969 675.87C284.724 679.591 286.188 683.413 287.47 687.278C289.911 694.662 291.879 702.205 293.97 709.69C296.213 717.666 298.456 725.627 300.668 733.602C302.743 741.073 304.833 748.529 306.908 756Z" fill="#7B5F5C"/>
<path d="M351.566 381.468C351.307 381.512 351.063 381.569 350.803 381.613C341.664 383.415 332.479 384.944 323.232 386.199C322.561 386.3 321.89 386.386 321.203 386.459C319.83 386.66 318.411 386.819 317.022 386.992C308.951 387.987 300.864 388.737 292.732 389.285C292.045 389.343 291.374 389.386 290.687 389.43C288.856 389.559 287.041 389.66 285.21 389.747C268.838 390.598 252.405 390.583 236.034 389.732C235.195 389.689 234.355 389.631 233.531 389.588C233.333 389.574 233.15 389.559 232.952 389.559C223.858 389.011 214.78 388.218 205.732 387.165C204.755 387.05 203.779 386.92 202.802 386.819C200.452 386.531 198.133 386.213 195.784 385.896C192.061 385.377 188.353 384.814 184.645 384.194C180.739 383.574 176.864 382.896 172.973 382.175C171.508 381.901 170.074 381.642 168.64 381.324C168.625 381.339 168.625 381.339 168.609 381.353C169.265 383.704 169.906 386.084 170.517 388.449C170.517 388.478 170.532 388.492 170.532 388.521C171.859 393.482 173.156 398.443 174.392 403.434C174.407 403.448 174.407 403.462 174.407 403.462C176.162 410.443 177.825 417.423 179.412 424.432V424.447C179.885 426.495 180.343 428.557 180.8 430.619C183.074 440.888 185.256 451.171 187.224 461.498C187.239 461.512 187.224 461.512 187.224 461.512C189.711 474.362 191.893 487.285 193.647 500.25C194.029 503.106 194.41 505.99 194.746 508.846C195.799 517.629 196.653 526.441 197.218 535.267C197.401 538.195 197.492 541.108 197.492 544.036C197.508 546.502 196.943 549.762 198.133 552.055C199.552 554.824 202.634 554.838 205.472 555.084C208.615 555.358 211.759 555.603 214.886 555.805C221.096 556.208 227.337 556.468 233.562 556.555C251.002 556.829 268.457 555.963 285.79 554.002C286.43 553.93 287.071 553.858 287.697 553.771C288.17 553.728 288.658 553.67 289.131 553.598C289.528 553.555 289.94 553.512 290.352 553.454C293.48 553.064 296.592 552.646 299.705 552.185C301.703 551.896 303.748 551.593 305.564 550.757C306.128 550.512 306.678 550.18 307.181 549.791C308.112 549.084 308.768 548.219 309.271 547.267C309.607 546.632 309.897 545.969 310.126 545.262C310.37 544.555 310.584 543.849 310.812 543.127C311.682 540.286 312.521 537.416 313.33 534.561C315.985 525.388 318.533 516.201 321.05 507C321.707 504.62 322.363 502.226 323.003 499.832C328.634 479.122 333.943 458.339 339.009 437.499C339.573 435.235 340.123 432.956 340.672 430.692C343.464 419.139 346.134 407.544 348.728 395.948C349.201 393.799 349.674 391.665 350.147 389.502C350.162 389.487 350.162 389.473 350.162 389.458C350.742 386.747 351.337 384.064 351.932 381.353C351.841 381.411 351.703 381.44 351.566 381.468Z" fill="#413432"/>
<path d="M367.414 619.58C365.812 614.071 364.134 608.576 362.379 603.11C362.364 603.024 362.334 602.937 362.303 602.865C355.086 580.222 347.671 557.608 339.34 535.311C337.28 529.816 335.098 524.365 333.084 518.855C331.131 513.548 329.605 508.125 329.941 502.457C330.277 496.717 332.077 491.092 333.511 485.526C335.022 479.67 336.548 473.8 338.104 467.945C339.843 461.426 341.568 454.921 343.322 448.403C343.536 447.653 343.719 446.888 343.933 446.138C343.917 446.124 343.917 446.124 343.948 446.11C346.725 435.74 349.502 425.341 352.202 414.957C352.218 414.943 352.218 414.929 352.218 414.914C352.813 412.621 353.408 410.313 354.003 408.035C354.033 407.991 354.049 407.934 354.049 407.876C354.903 404.516 355.773 401.155 356.627 397.795C358 392.401 358.855 386.863 356.993 381.483C356.978 381.411 356.948 381.325 356.917 381.253C356.505 380.113 356.032 379.003 356.383 377.936V377.907C354.933 376.695 354.293 375.541 353.621 374.373C353.087 373.421 352.523 372.469 351.943 371.532C350.982 369.917 350.005 368.301 349.074 366.686C347.686 364.206 346.298 361.696 344.955 359.172C340.927 351.586 337.158 343.856 333.954 335.952C332.047 331.236 330.277 326.462 328.629 321.645C329.438 319.165 325.669 317.189 323.594 319.107C322.434 319.655 321.259 320.189 320.069 320.708C319.52 320.78 319.017 320.823 318.696 320.881C317.323 321.126 315.919 321.299 314.515 321.429C313.707 321.516 312.868 321.588 312.059 321.631C308.687 321.847 304.918 322.222 301.577 321.934H301.562C300.646 321.256 299.761 320.968 298.937 320.578C298.663 320.448 298.388 320.319 298.113 320.492H298.098C296.603 319.497 295.092 318.848 293.673 318.054C293.673 318.04 293.658 318.04 293.658 318.04C293.643 318.04 293.643 318.025 293.627 318.025C293.612 318.025 293.582 318.011 293.566 317.997C291.919 317.059 290.957 315.372 289.004 314.853C288.333 314.68 287.677 314.68 287.097 314.809C285.892 315.054 284.915 315.848 284.458 316.828C284.412 316.929 284.381 317.016 284.335 317.102C284.32 317.16 284.305 317.232 284.29 317.29C284.168 317.694 284.137 318.126 284.229 318.559C284.198 318.804 284.183 319.035 284.229 319.295C284.335 319.872 284.427 320.448 284.503 321.025C284.519 321.04 284.519 321.054 284.686 321.069V321.112C284.595 321.718 284.702 322.309 284.793 322.9C285.068 324.66 285.373 326.419 285.648 328.179C286.319 332.246 286.975 336.313 287.616 340.38C289.615 352.999 291.476 365.662 292.544 378.368C292.849 382.017 293.109 385.666 293.277 389.315C293.307 389.819 293.338 390.31 293.353 390.815C293.597 396.757 293.49 402.742 292.941 408.669C292.773 410.443 292.575 412.217 292.315 413.962C291.751 418.159 291.003 422.313 290.332 426.495C288.531 437.615 287.036 448.778 285.968 459.984C285.876 460.734 285.815 461.484 285.739 462.234C283.542 486.088 283.039 510.072 285.587 533.927C286.288 540.59 287.189 547.195 288.257 553.786C288.348 554.334 288.44 554.882 288.516 555.416C289.264 559.829 290.057 564.213 290.912 568.612C293.185 580.193 295.901 591.702 298.846 603.139C300.417 609.24 302.05 615.326 303.743 621.383C305.208 626.691 306.703 631.983 308.229 637.276C309.038 640.103 309.862 642.944 310.67 645.771C311.342 648.108 311.784 651.223 314.287 652.506C316.957 653.876 319.764 652.578 322.312 651.627C325.104 650.574 327.881 649.492 330.628 648.367C340.622 644.242 350.326 639.497 359.633 634.118C360.503 633.628 361.357 633.123 362.211 632.618C364.5 631.262 366.819 629.791 367.796 627.296C368.833 624.729 368.132 622.09 367.414 619.58Z" fill="#CC4645"/>
<path d="M425.45 465.781C425.069 457.834 421.575 450.493 417.684 443.571C416.952 442.287 416.235 441.004 415.502 439.72C409.796 429.668 403.983 419.687 398.642 409.477C396.918 406.203 395.24 402.886 393.623 399.54C392.28 396.727 390.968 393.915 389.701 391.074C384.254 378.8 379.646 366.253 376.244 353.331V353.287C376.183 353.042 376.107 352.797 376.046 352.552C375.42 350.129 374.84 347.677 374.215 345.269C374.184 345.124 374.138 344.98 374.093 344.836C372.872 340.192 371.361 335.635 368.691 331.51C364.48 324.962 357.263 321.14 349.726 318.847C345.713 317.636 341.441 316.741 337.291 316.165C333.156 315.602 328.685 316.294 324.718 317.477C321.377 318.472 318.188 319.842 314.877 320.909C314.19 321.14 313.519 321.357 312.817 321.544C310.025 322.323 307.095 322.9 304.166 323.174C303.113 323.275 302.076 323.347 301.038 323.347C300.641 323.376 300.229 323.376 299.817 323.361H299.36C299.36 323.361 290.998 323.03 286.986 321.905C286.024 321.631 285.185 322.15 284.788 322.885C284.621 323.159 284.529 323.491 284.529 323.794C284.529 323.808 284.514 323.823 284.529 323.837C284.529 323.852 284.514 323.852 283.141 323.866V324.025V324.054V324.082V324.126C284.56 324.371 284.636 324.602 284.804 324.803C284.712 324.948 284.636 325.092 284.575 325.251C284.56 325.294 284.666 325.366 284.666 325.366V325.279C284.529 325.683 284.514 326.058 284.666 326.491V326.577C284.712 326.794 284.819 326.924 284.972 327.125C285.048 327.255 285.155 327.371 285.261 327.472C285.445 327.659 285.628 327.832 285.78 328.02C290.174 332.592 294.309 337.409 298.124 342.427C300.092 345.038 301.999 347.706 303.815 350.417C306.653 354.643 309.277 358.999 311.658 363.455C312.344 364.724 313 365.993 313.641 367.306V366.57C313.641 366.585 313.656 366.585 313.656 366.599C314.923 369.094 316.098 371.618 317.242 374.185C318.325 376.608 319.363 379.06 320.354 381.497C320.95 382.954 321.514 384.411 322.063 385.867C322.78 387.685 323.452 389.516 324.123 391.362C325.817 395.977 327.434 400.621 329.036 405.265C332.591 415.592 336.131 425.932 339.671 436.244C339.747 436.446 339.808 436.619 339.869 436.821C341.105 440.427 342.356 444.047 343.592 447.667C343.714 448.013 343.836 448.373 343.958 448.734C344.141 449.239 344.294 449.758 344.477 450.263C344.599 450.594 344.721 450.955 344.828 451.287C349.283 464.281 353.647 478.516 364.785 487.934C370.11 492.433 376.671 495.736 383.827 496.457H383.842C384.453 496.529 385.063 496.573 385.658 496.601C388.176 496.702 390.937 496.399 393.501 495.635C395.896 495.404 398.261 495.087 400.58 494.726C408.163 493.544 415.09 490.703 419.79 484.732C424.062 479.323 425.756 472.386 425.45 465.781Z" fill="#CC4645"/>
<path d="M239.058 465.161C238.936 462.161 238.798 459.161 238.661 456.161C238.02 442.402 237.471 428.643 236.464 414.899C235.96 408.222 235.442 401.544 234.877 394.867C234.724 393.107 234.572 391.347 234.404 389.588C234.404 389.343 234.373 389.126 234.343 388.881V388.665C233.946 383.848 233.504 379.016 233.046 374.199C231.902 362.2 230.59 350.244 229.018 338.302C228.804 336.572 228.56 334.856 228.331 333.125C227.858 329.736 227.401 326.332 226.958 322.914C226.806 321.832 226.226 320.996 225.387 320.606C224.654 320.217 223.724 320.174 222.747 320.606C218.414 322.496 214.096 324.385 209.763 326.274C209.747 326.274 209.747 326.289 209.747 326.289C209.641 326.332 209.564 326.375 209.457 326.419C203.019 329.231 196.58 332.058 190.141 334.884C189.21 335.303 188.707 336.355 188.676 337.278C188.585 340.235 188.493 343.177 188.402 346.134C187.944 358.796 187.242 371.445 186.113 384.064C184.938 397.376 183.275 410.644 180.941 423.812V424.461C180.941 424.461 179.644 426.336 179.445 427.259C179.277 428.225 179.11 429.206 178.911 430.172C178.408 432.768 177.889 437.946 177.889 437.946V438.018C177.889 438.018 176.226 443.585 175.646 446.368C175.631 446.383 175.631 446.397 175.646 446.412C175.509 447.017 175.387 447.594 175.265 448.186C175.188 448.373 175.127 448.561 175.097 448.777C175.082 448.921 175.066 449.051 175.051 449.21C175.036 449.311 175.005 449.426 174.99 449.512C174.99 449.512 174.975 449.512 174.99 449.527C174.548 451.575 173.312 455.671 173.312 455.671V455.685C173.312 455.685 173.602 456.118 173.556 456.349C173.312 457.459 173.739 458.353 174.425 458.959C174.41 459.55 173.312 460.719 173.312 460.719V460.733C173.312 468.016 173.876 475.314 173.876 482.597C173.876 483.895 173.861 485.193 173.8 486.491C173.8 486.808 173.785 487.155 173.769 487.472C173.495 493.789 172.503 500.135 170.535 506.221C168.597 512.163 165.698 518.134 162.616 523.643C156.497 534.604 150.913 545.839 145.893 557.261C140.797 568.929 136.098 580.697 132.482 592.841C131.063 597.586 129.796 602.359 128.637 607.162C126.455 616.147 124.715 625.233 123.388 634.377C123.159 635.877 123.815 637.131 125.433 637.636C131.414 639.497 137.425 641.227 143.483 642.828C147.19 643.809 150.913 644.746 154.651 645.612C156.391 646.03 158.13 646.434 159.885 646.823C162.311 647.371 164.752 647.89 167.208 648.395C174.151 649.809 181.139 651.063 188.142 652.145C191.713 652.708 195.298 653.198 198.884 653.659C202.012 654.049 206.085 655.188 209.061 653.789C211.853 652.462 212.601 649.65 213.333 647.054C214.248 643.78 215.103 640.477 215.973 637.189C216.69 634.435 217.422 631.709 218.139 628.954C219.161 625.103 220.168 621.238 221.175 617.387C224.563 604.306 227.736 591.168 230.467 577.957C231.825 571.424 233.031 564.876 234.145 558.314C234.236 557.737 234.343 557.146 234.435 556.569C234.602 555.603 234.755 554.636 234.923 553.67C235.762 548.521 236.525 543.401 237.272 538.238C239.21 524.739 239.912 511.095 239.882 497.481C239.882 486.693 239.531 475.934 239.058 465.161Z" fill="#CC4645"/>
<path d="M225.197 339.385C224.221 337.654 223.488 335.779 222.832 333.919C221.581 330.371 220.482 326.808 219.521 323.188C216.714 324.184 213.799 324.934 210.809 325.467C207.208 326.102 203.439 326.217 199.808 325.77C195.582 325.251 191.523 323.866 187.373 322.972C185.496 322.568 183.589 322.453 181.682 322.179C179.393 321.847 177.15 321.429 174.846 321.371C171.047 321.256 167.172 321.789 163.647 323.131C156.323 325.929 151.563 332.202 148.832 338.981C145.643 346.913 144.102 355.581 142.393 363.874C140.623 372.44 139.051 381.036 137.388 389.603C134.108 406.491 130.843 423.394 125.258 439.763C122.466 447.97 118.667 455.815 116.058 464.079C113.784 471.291 112.548 478.487 115.28 485.785C116.516 489.073 118.331 492.203 121.001 494.64C124.068 497.453 127.944 499.212 131.972 500.423C139.128 502.587 147.046 503.092 154.401 501.534C158.032 500.77 161.679 499.111 164.685 497.078C167.797 494.957 170.36 492.015 172.756 489.203C177.837 483.247 181.331 476.064 184.535 469.084C188.136 461.238 191.126 453.162 193.201 444.826C195.078 437.268 196.375 429.61 197.535 421.938C198.725 414.063 199.778 406.16 201.166 398.3C202.524 390.569 203.958 382.781 206.415 375.296C208.871 367.796 212.335 360.874 216.714 354.211C219.796 349.523 223.061 344.735 225.365 339.601C225.289 339.529 225.243 339.457 225.197 339.385Z" fill="#CC4645"/>
<path d="M325.216 254.874C329.565 244.912 327.244 234.555 320.031 231.741C312.817 228.927 303.444 234.722 299.094 244.684C294.745 254.646 297.066 265.003 304.279 267.817C311.493 270.631 320.866 264.836 325.216 254.874Z" fill="#E5B296"/>
<path d="M208.249 260.393C210.721 271.253 216.534 281.666 225.994 287.767C234.172 293.045 244.364 294.733 254.114 295.266C267.464 295.988 282.127 294.416 292.518 286.253C305.044 276.402 308.447 259.6 310.812 243.159C312.673 230.237 314.474 216.031 310.675 202.575C303.381 176.773 275.139 160.188 248.758 166.606C205.106 177.235 200.894 228.145 208.249 260.393Z" fill="#E5B296"/>
<path d="M320.173 212.483C319.639 211.574 319.105 210.651 318.586 209.743C318.494 208.95 318.448 208.171 318.372 207.378C318.189 205.849 317.014 205.056 315.748 204.94C312.04 198.854 308.119 192.898 303.831 187.172C303.74 187.028 303.648 186.898 303.526 186.754C302.611 185.528 301.695 184.316 300.749 183.134C300.383 182.658 300.002 182.196 299.62 181.735C298.522 180.379 297.393 179.052 296.218 177.769C290.633 171.61 284.195 166.173 276.55 162.322C275.315 161.702 274.247 162.106 273.606 162.899C272.69 162.827 271.714 162.899 270.829 162.943C270.249 162.971 269.669 163.029 269.105 163.058C268.616 162.914 268.067 162.899 267.472 163.087C267.35 163.13 267.243 163.188 267.121 163.245C266.48 163.303 265.855 163.375 265.214 163.462C263.413 163.707 261.613 164.01 259.843 164.385C258.836 164.587 257.844 164.803 256.853 165.063C255.861 165.308 254.869 165.567 253.893 165.856C252.428 166.289 251.65 167.962 252.153 169.303C252.519 170.312 253.45 170.932 254.503 171.062C254.93 171.106 255.373 171.062 255.785 170.947C255.968 170.889 256.181 170.846 256.364 170.788H256.38C257.707 170.428 259.034 170.11 260.377 169.836C261.827 169.534 263.291 169.288 264.756 169.086C265.534 168.985 266.312 168.899 267.091 168.798C270.661 175.432 274.887 181.691 279.739 187.518C286.56 195.782 294.616 203.123 303.679 209.281C304.976 210.175 306.319 211.026 307.661 211.863C307.966 222.55 308.714 233.208 309.416 243.866C309.614 246.909 309.828 249.938 310.041 252.995C310.24 255.923 310.438 258.851 310.636 261.778V261.793C311.048 267.893 311.46 273.994 311.888 280.095C312.101 283.181 317.304 283.527 317.701 280.354C318.769 271.96 319.471 263.552 319.852 255.101C319.913 253.832 319.974 252.562 319.99 251.293V251.279C320.096 248.495 320.157 245.726 320.173 242.943C320.234 234.145 319.928 225.333 319.227 216.579C319.7 216.348 320.066 215.93 320.264 215.454C320.813 214.56 320.722 213.449 320.173 212.483Z" fill="#754A34"/>
<path d="M263.432 166.044C263.371 165.799 263.28 165.568 263.158 165.337C262.654 164.486 261.693 163.88 260.655 163.88C252.92 163.88 245.23 165.15 237.921 167.587H237.906C236.075 168.193 234.275 168.87 232.505 169.635C232.489 169.635 232.474 169.649 232.459 169.664C230.216 170.601 228.019 171.654 225.883 172.837C220.604 175.735 215.66 179.341 211.327 183.495C207.497 187.158 204.262 191.427 203.225 196.576C203.103 197.239 202.996 197.902 202.935 198.595C202.935 198.696 202.95 198.782 202.95 198.854C202.462 201.119 202.37 203.469 202.157 205.719C202.05 206.974 201.928 208.243 201.836 209.498C201.745 210.594 201.669 211.69 201.608 212.772C201.531 213.522 201.501 214.272 201.455 215.036C201.348 217.098 201.241 219.161 201.165 221.223C201.104 222.449 201.058 223.675 201.028 224.901C200.005 225.319 199.258 226.213 199.258 227.425V227.468C199.273 228.478 199.96 229.516 200.921 229.992C200.89 231.002 200.86 232.026 200.845 233.035C200.768 239.309 200.86 245.597 201.119 251.856C201.333 257.812 201.684 263.769 202.157 269.725C202.325 271.86 205.651 271.917 205.575 269.725C205.468 266.639 205.407 263.581 205.361 260.495V260.481C205.315 257.683 205.315 254.87 205.33 252.058C205.361 245.712 205.514 239.352 205.803 233.021C205.864 231.925 205.925 230.828 205.987 229.747C217.277 228.059 227.576 223.661 236.67 216.723C240.591 213.738 244.146 210.349 247.289 206.613C252.172 200.873 256.109 194.369 258.977 187.432C261.205 182.081 262.608 176.514 263.203 170.803C263.341 169.433 263.448 168.048 263.493 166.664C263.493 166.462 263.478 166.231 263.432 166.044Z" fill="#754A34"/>
<path d="M261.989 257.077C259.792 256.457 257.595 256.414 255.367 255.967C254.803 255.851 254.253 255.635 253.689 255.563C253.643 255.563 253.628 255.548 253.582 255.548C253.979 254.914 254.208 253.947 254.589 253.313C256.664 249.895 258.77 246.837 259.822 242.958C261.943 235.213 260.723 227.483 259.67 219.709C259.487 218.296 257.244 218.195 257.259 219.709C257.381 228.449 257.183 238.184 252.773 246.102C250.927 249.419 245.953 254.222 248.44 258.231C249.676 260.221 252.422 260.769 254.635 261.115C257.458 261.548 259.899 261.534 262.386 260.106C263.713 259.341 263.439 257.481 261.989 257.077Z" fill="#A96C60"/>
<path d="M286.322 238.891C286.322 243.333 283.866 246.938 280.845 246.938C277.824 246.938 275.367 243.333 275.367 238.891C275.367 234.449 277.824 230.829 280.845 230.829C283.881 230.829 286.322 234.434 286.322 238.891Z" fill="#413432"/>
<path d="M243.385 238.891C243.385 243.333 240.928 246.938 237.907 246.938C234.886 246.938 232.43 243.333 232.43 238.891C232.43 234.449 234.886 230.829 237.907 230.829C240.928 230.829 243.385 234.434 243.385 238.891Z" fill="#413432"/>
<path d="M292.428 213.58C287.378 213.825 282.175 217.33 277.155 215.498C276.804 215.368 276.422 215.224 276.072 215.022C275.37 214.647 274.683 214.676 274.119 214.921C273.111 215.094 272.272 215.772 272.593 217.085C273.05 218.974 273.829 220.69 275.37 222.161C275.858 222.623 276.407 223.012 277.002 223.329C278.559 224.151 280.435 224.469 282.297 224.281C284.967 224.022 287.393 223.027 290.002 222.551C292.565 222.089 296.166 222.147 298.546 223.171C299.675 223.661 301.445 223.272 301.674 222.06C302.574 217.286 297.982 213.32 292.428 213.58Z" fill="#413432"/>
<path d="M246.025 201.075C245.338 200.498 244.178 200.513 243.492 201.422C241.859 203.614 237.74 202.691 235.436 202.445C232.384 202.128 229.271 202.301 226.327 203.195C220.819 204.868 217.126 208.777 214.944 213.724C214.349 215.065 215.646 216.68 217.202 215.858C218.637 215.094 219.842 213.983 221.322 213.262C222.802 212.527 224.48 212.224 226.128 212.123C229.409 211.906 232.659 212.368 235.939 212.411C238.838 212.44 241.844 211.935 243.934 209.887C246.04 207.825 246.65 205.171 246.925 202.417C246.986 201.782 246.559 201.321 246.025 201.075Z" fill="#413432"/>
<path d="M272.613 272.566C270.95 270.691 268.585 268.441 266.22 267.345C263.52 266.105 260.575 265.514 257.569 265.615C254.67 265.73 252.015 266.422 249.406 267.576C247.163 268.557 242.739 272.09 242.556 272.537C242.449 272.71 242.418 272.883 242.449 273.056C242.418 273.576 242.678 274.095 243.334 274.412C245.485 275.465 247.819 275.739 250.2 276.071C252.595 276.417 254.991 276.792 257.417 276.979C259.766 277.167 262.086 277.167 264.435 276.936C266.602 276.72 269.623 276.503 271.423 275.277C271.515 275.22 271.591 275.133 271.667 275.061C272.995 274.989 273.422 273.475 272.613 272.566Z" fill="#A62E2E"/>
<path d="M272.393 272.652C267.847 269.768 262.903 268.571 257.441 268.686C254.847 268.744 252.223 269.018 249.736 269.696C248.439 270.042 247.157 270.46 245.921 270.979C244.67 271.499 243.587 272.277 242.366 272.811C241.679 273.114 242.152 274.152 242.854 273.965C244.075 273.633 245.463 273.633 246.73 273.46C247.874 273.301 249.034 273.128 250.178 273.013C252.513 272.768 254.847 272.523 257.197 272.494C261.789 272.45 266.855 273.128 271.127 274.772C272.622 275.349 273.797 273.547 272.393 272.652Z" fill="#413432"/>
<path d="M308.172 254.135C308.172 257.769 303.304 260.711 297.293 260.711C291.281 260.711 286.414 257.769 286.414 254.135C286.414 250.5 291.281 247.558 297.293 247.558C303.304 247.558 308.172 250.515 308.172 254.135Z" fill="#D6938B"/>
<path d="M232.64 254.135C232.64 257.769 227.773 260.711 221.762 260.711C215.75 260.711 210.883 257.769 210.883 254.135C210.883 250.5 215.75 247.558 221.762 247.558C227.773 247.558 232.64 250.515 232.64 254.135Z" fill="#D6938B"/>
<path d="M160.095 437.715C158.86 429.221 154.587 421.563 150.208 414.121C149.14 412.332 148.072 410.544 147.035 408.77C144.365 404.184 141.771 399.569 138.231 394.91V394.896C138.551 393.569 137.849 392.228 137.132 390.886C134.95 386.733 132.814 382.565 130.724 378.354C129.137 375.137 127.581 371.936 126.086 368.691C125.155 366.7 124.224 364.681 123.339 362.662C122.729 361.335 122.149 359.98 121.569 358.624C121.371 358.177 121.203 357.715 120.99 357.268C119.677 354.139 118.365 351.009 116.946 347.923C114.383 342.457 111.041 336.904 106.22 333.197L106.205 333.183C105.243 332.433 104.206 331.77 103.123 331.178C102.833 330.486 102.497 329.837 102.161 329.188C101.597 328.121 100.956 327.097 100.269 326.131C98.7894 324.025 97.0195 322.121 94.9902 320.463C91.2978 317.448 87.0104 315.415 82.311 314.203C77.1233 312.862 71.7525 312.357 66.5344 311.117C61.545 309.934 57.5628 307.656 53.7636 304.425C52.1157 303.041 50.5594 301.526 49.0184 300.041C47.2485 298.324 45.4785 296.608 43.5713 295.022C40.001 292.065 35.1642 288.762 30.1444 289.253C25.5671 289.7 21.8136 294.546 24.7126 298.541C25.0483 299.017 25.4755 299.421 25.9027 299.839C25.8875 299.882 25.8722 299.925 25.8722 299.983C25.857 299.983 25.8722 299.997 25.8722 299.997C25.4908 301.829 25.8417 303.935 25.918 305.723C26.0706 310.252 26.2384 314.766 26.4368 319.28C26.452 319.741 26.4825 320.189 26.4978 320.636C26.1469 320.434 25.7807 320.232 25.445 320.001C24.6516 319.525 23.8582 319.02 23.0953 318.487C19.4182 315.862 16.7938 312.227 13.0404 309.704C9.56159 307.353 4.57228 306.343 0.879884 308.824C-0.142391 309.516 -0.279711 310.569 0.498438 311.478C2.03948 313.28 3.16856 315.357 4.6028 317.232C5.94549 318.992 7.41024 320.693 8.9818 322.309C12.2775 325.698 16.0004 328.568 19.9217 331.265C24.1633 334.164 28.5881 336.803 32.9976 339.442C34.737 340.481 36.4306 341.534 38.1395 342.601C38.5515 342.846 38.9634 343.12 39.4059 343.365C40.9775 344.346 42.5948 345.384 44.3495 346.12C45.448 346.956 46.5619 347.778 47.6604 348.6C51.0324 351.153 54.5875 353.547 58.936 354.283C63.437 355.033 68.1364 354.989 72.6985 355.206C77.7946 355.451 82.9213 355.581 88.0174 355.912C94.502 372.253 96.2261 390.021 99.5828 407.14C99.6133 407.313 99.6591 407.486 99.6896 407.66C100.834 413.4 102.085 419.125 103.565 424.808C104.816 429.711 106.22 434.571 107.822 439.388C109.607 444.725 111.499 450.061 113.651 455.267C114.536 457.445 115.527 459.681 116.885 461.642C118.213 463.575 119.876 465.262 122.134 466.372C127.032 468.795 133.409 468.291 138.704 467.598C143.846 466.921 148.835 465.147 152.634 461.714C154.389 460.128 155.823 458.296 156.556 456.32V456.291C159.18 452.426 160.279 447.941 160.431 443.499C160.477 441.552 160.385 439.59 160.095 437.715Z" fill="#E5B296"/>
<path d="M97.2745 330.126C90.439 329.866 83.5882 332.722 79.2092 337.683C76.6764 337.798 74.1436 337.928 71.6108 338.029C70.3139 338.072 69.5815 337.841 68.483 337.135C67.598 336.558 66.7894 335.909 66.0265 335.188C64.5007 333.746 63.1275 332.029 62.1968 330.183C61.3728 328.568 61.1134 326.722 60.8541 324.962C60.3353 321.516 59.9081 317.939 57.1159 315.386C55.2239 313.655 52.386 312.819 49.8379 313.324C48.7088 310.757 45.8556 308.723 43.2007 307.858C41.736 307.382 40.0119 307.252 38.776 308.319C38.6234 308.449 38.5318 308.622 38.4098 308.781C37.8147 306.704 36.8687 304.714 35.6176 303.084C33.7867 300.704 27.8666 296.19 25.5322 300.517C24.5709 302.319 24.9524 304.757 24.9829 306.704C25.0287 309.502 25.105 312.3 25.2118 315.112C25.4101 320.535 25.7916 325.958 26.3103 331.366C26.4629 332.88 28.9804 332.895 28.8279 331.366C27.9582 322.655 27.4547 313.901 27.4852 305.146C27.4852 304.266 27.3936 303.315 27.5767 302.449C27.8208 301.353 28.5075 301.296 29.5297 301.714C31.2081 302.377 32.6118 303.69 33.6036 305.117C35.938 308.492 35.6786 312.458 37.1586 316.093C37.2349 316.266 37.3723 316.41 37.5248 316.525C37.3417 323.362 36.884 330.183 36.7162 337.019C36.6704 338.765 39.5236 338.765 39.5846 337.019C39.783 330.544 39.5541 324.068 39.8288 317.607C39.8898 316.049 39.9813 314.506 40.0576 312.949C40.1187 311.838 40.0424 310.05 41.6902 310.367C42.8803 310.583 44.101 311.305 45.0164 312.04C45.9472 312.79 46.5117 313.67 47.1525 314.578C46.6643 314.968 46.3439 315.487 46.527 316.107C46.7863 317.03 47.2288 317.881 47.4272 318.819C47.6103 319.669 47.7323 320.535 47.8849 321.386C48.1901 323.188 48.4952 324.977 48.7699 326.78C49.3191 330.4 49.609 334.048 50.1278 337.683C50.3262 339.024 50.6313 340.351 51.5926 341.404C52.7064 342.63 54.2474 343.538 55.5291 344.591C58.4433 347 61.2965 349.48 64.1803 351.946C65.172 352.797 66.652 351.413 65.6603 350.547C63.0359 348.226 60.3811 345.918 57.7872 343.553C56.5971 342.471 55.4223 341.375 54.3084 340.221C53.1794 339.053 53.1336 337.712 52.7979 336.212C52.0808 332.909 51.3637 329.606 50.7686 326.289C50.4635 324.573 50.1888 322.871 49.9142 321.155C49.7921 320.333 49.6396 319.525 49.5328 318.703C49.4412 318.011 49.4717 317.319 49.487 316.641C51.0128 315.963 52.6759 315.718 54.339 316.223C56.4598 316.886 57.4363 318.775 57.8483 320.722C58.6722 324.631 57.9856 328.669 60.0607 332.318C61.1287 334.193 62.8528 335.606 64.5617 336.933C66.179 338.188 67.8727 340.178 69.9935 340.582C71.1531 340.812 72.4042 340.668 73.5791 340.654C75.0439 340.639 76.5239 340.596 77.9886 340.567C79.2398 340.538 80.3688 340.74 81.2385 339.788C81.9862 338.981 82.7033 338.173 83.5425 337.438C87.2654 334.207 92.3005 332.649 97.3203 332.938C99.1665 333.01 99.1665 330.198 97.2745 330.126Z" fill="#A96C60"/>
<path d="M106 355.696C104.672 355.624 103.391 355.263 102.079 355.09C100.797 354.932 99.5152 354.744 98.2336 354.629C96.9977 354.513 95.7465 354.412 94.5106 354.355C93.1832 354.297 91.81 354.153 90.4826 354.225C88.1024 354.34 88.1176 357.556 90.4826 357.701C91.7642 357.787 93.0764 357.672 94.3581 357.643C95.655 357.614 96.9519 357.528 98.2336 357.441C99.4694 357.354 100.721 357.21 101.956 357.066C103.299 356.922 104.627 356.576 105.985 356.532C106.58 356.518 106.58 355.725 106 355.696Z" fill="#A96C60"/>
<path d="M160.549 431.542C159.664 426.826 157.558 422.298 155.3 418.029C152.965 413.616 150.265 409.404 147.579 405.178C142.056 396.525 136.456 387.886 131.65 378.858C126.752 369.671 122.557 360.21 118.345 350.734C114.882 342.932 110.716 333.918 101.546 330.962C100.539 330.644 99.8223 332.231 100.829 332.62C108.412 335.591 111.983 343.221 114.958 349.927C116.896 354.311 118.849 358.681 121.015 362.979C123.304 367.493 125.639 372.007 128.004 376.478C132.688 385.333 137.341 394.275 142.621 402.842C147.686 411.048 153.271 419.067 156.52 428.124C157.329 430.403 158.138 432.711 158.58 435.09C159.038 437.513 159.206 440.008 159.175 442.46C159.114 447.248 157.787 452.065 155.162 456.176C154.644 456.998 155.956 457.675 156.52 456.897C159.099 453.277 160.61 449.123 161.205 444.796C161.8 440.34 161.372 435.956 160.549 431.542Z" fill="#A96C60"/>
<path d="M164.69 497.078C136.891 516.995 115.728 520.355 85.548 428.932C83.9765 424.159 82.3592 419.097 80.7266 413.76L140.4 394.521C140.4 394.521 146.427 402.122 153.522 413.342C168.993 437.744 189.576 479.252 164.69 497.078Z" fill="#CC4645"/>
<path d="M153.537 413.356L85.548 428.932C83.9765 424.159 82.3592 419.097 80.7266 413.76L140.4 394.521C140.415 394.535 146.442 402.136 153.537 413.356Z" fill="#A62E2E"/>
<path d="M172.927 445.215C167.297 434.038 160.888 423.12 154.19 412.491C150.33 406.361 146.332 400.333 142.121 394.405C141.236 393.165 139.146 394.247 139.97 395.559C146.393 405.799 152.634 416.154 158.478 426.697C161.377 431.932 164.092 437.239 166.808 442.561C169.433 447.724 172.027 452.945 173.766 458.44C175.734 464.642 176.619 471.117 175.276 477.521C174.987 478.876 177.184 479.944 177.809 478.501C182.6 467.353 178.084 455.469 172.927 445.215Z" fill="#A62E2E"/>
<path d="M472.52 267.302C468.065 266.062 463.625 268.6 461.077 271.989C458.346 275.609 457.11 279.965 454.455 283.657C453.906 284.407 453.326 285.142 452.716 285.863C452.456 286.181 452.182 286.498 451.922 286.801C451.785 286.354 451.647 285.921 451.51 285.474C450.106 281.046 448.687 276.633 447.238 272.206C446.658 270.417 446.261 268.196 445.193 266.523C445.193 266.523 445.193 266.523 445.193 266.509C445.453 265.975 445.712 265.442 445.88 264.865C447.268 260.105 441.928 256.586 437.351 257.61C432.331 258.706 428.822 263.422 426.426 267.403C425.145 269.523 424.046 271.744 422.932 273.965C421.971 275.883 420.994 277.83 419.896 279.705C417.363 284.003 414.312 287.464 409.902 290.176C405.294 293.002 400.274 295.18 395.743 298.122C391.623 300.762 388.19 304.079 385.688 308.16C384.315 310.396 383.277 312.79 382.575 315.285C382.255 316.453 381.995 317.636 381.812 318.833C381.706 319.583 381.614 320.318 381.583 321.083C380.744 321.991 379.966 322.957 379.295 323.996C379.295 323.996 379.295 323.996 379.295 324.01C375.938 329.101 374.656 335.505 374.122 341.605C373.985 343.019 373.878 344.418 373.817 345.846C373.68 347.865 373.573 349.898 373.497 351.932C373.482 352.191 373.466 352.451 373.451 352.711C373.375 354.211 373.298 355.71 373.192 357.196C373.009 359.648 372.841 362.114 372.612 364.551C372.307 368.157 371.925 371.762 371.513 375.339C370.888 380.834 370.186 386.314 369.408 391.795C368.553 397.838 367.577 403.866 366.478 409.88C366.463 409.981 366.448 410.082 366.417 410.169C364.495 420.582 361.809 431.398 364.037 441.955C364.418 443.859 364.998 445.763 365.761 447.638C367.485 451.892 370.11 455.873 373.619 458.902C373.619 458.916 373.619 458.916 373.634 458.93C375.435 460.488 377.479 461.801 379.722 462.781C384.62 464.916 390.052 465.06 395.27 464.094C400.625 463.099 406.957 461.584 410.848 457.705C414.449 454.099 414.952 449.022 415.151 444.306C415.212 443.037 415.242 441.754 415.258 440.47C415.364 436.028 415.319 431.571 415.181 427.129C415.013 421.461 414.617 415.808 414.037 410.169C413.442 404.544 412.679 398.948 411.794 393.381C411.702 392.804 411.611 392.242 411.519 391.665C408.727 374.632 404.455 357.484 404.943 340.235C409.765 338.317 414.662 336.572 419.499 334.74C423.832 333.082 428.379 331.669 432.484 329.505C436.313 327.5 438.892 324.183 441.211 320.736C442.325 319.294 444.125 316.943 445.239 315.501C446.033 314.621 446.78 313.713 447.497 312.819C447.818 312.444 448.123 312.054 448.443 311.679C449.71 310.107 450.991 308.564 452.304 307.006C455.66 303.069 458.986 299.132 462.069 294.993C464.937 291.156 467.531 287.219 469.499 282.892C470.445 280.83 471.269 278.739 471.94 276.619C472.673 274.355 473.024 271.975 473.878 269.768C474.26 268.614 473.756 267.634 472.52 267.302Z" fill="#E5B296"/>
<path d="M387.041 318.212C393.556 315.804 401.185 316.409 407.166 319.827C409.653 319.135 412.156 318.472 414.643 317.765C415.924 317.405 416.55 316.943 417.343 315.919C417.984 315.083 418.549 314.203 419.037 313.265C420.013 311.39 420.731 309.299 420.975 307.222C421.188 305.405 420.807 303.545 420.441 301.756C419.724 298.252 418.884 294.675 420.685 291.329C421.905 289.065 424.347 287.349 427.001 287.046C427.2 284.204 429.244 281.349 431.503 279.676C432.754 278.753 434.371 278.089 435.943 278.724C436.141 278.811 436.294 278.94 436.461 279.056C436.309 276.849 436.522 274.643 437.163 272.667C438.094 269.797 442.229 263.566 446.013 267.013C447.584 268.455 448.057 270.936 448.713 272.811C449.659 275.537 450.575 278.263 451.46 281.003C453.169 286.31 454.725 291.661 456.129 297.055C456.525 298.569 454.084 299.362 453.703 297.848C451.475 289.151 448.881 280.527 445.769 272.075C445.448 271.224 445.219 270.273 444.731 269.494C444.106 268.513 443.434 268.672 442.58 269.393C441.191 270.561 440.291 272.277 439.849 273.95C438.781 277.945 440.428 281.695 440.276 285.676C440.261 285.863 440.184 286.051 440.062 286.209C442.641 292.757 445.494 299.204 448.073 305.766C448.729 307.439 445.967 308.333 445.296 306.66C442.824 300.473 440.764 294.127 438.231 287.969C437.621 286.483 436.995 285.012 436.37 283.541C435.927 282.488 435.363 280.743 433.883 281.551C432.815 282.142 431.884 283.209 431.258 284.204C430.618 285.214 430.373 286.252 430.084 287.334C430.694 287.55 431.182 287.954 431.228 288.618C431.304 289.598 431.167 290.565 431.304 291.531C431.426 292.411 431.609 293.276 431.777 294.156C432.113 295.987 432.449 297.819 432.815 299.651C433.562 303.328 434.554 306.948 435.332 310.612C435.622 311.967 435.79 313.352 435.225 314.664C434.569 316.193 433.41 317.563 432.54 318.991C430.557 322.236 428.68 325.539 426.773 328.813C426.117 329.952 424.194 329.087 424.85 327.918C426.574 324.846 428.329 321.774 430.007 318.674C430.77 317.26 431.518 315.818 432.189 314.361C432.876 312.876 432.449 311.578 432.235 310.02C431.762 306.602 431.304 303.184 430.709 299.781C430.404 298.035 430.053 296.29 429.717 294.545C429.55 293.723 429.412 292.887 429.229 292.065C429.077 291.358 428.802 290.709 428.543 290.06C426.834 289.872 425.125 290.161 423.706 291.185C421.89 292.483 421.6 294.632 421.89 296.636C422.47 300.675 424.56 304.367 423.828 308.549C423.462 310.698 422.287 312.602 421.112 314.434C419.998 316.164 419.052 318.602 417.145 319.669C416.107 320.246 414.841 320.52 413.712 320.866C412.278 321.313 410.843 321.746 409.409 322.164C408.189 322.524 407.166 323.072 405.991 322.438C404.984 321.89 404.008 321.327 402.94 320.895C398.21 318.933 392.778 319.02 388.048 320.866C386.248 321.587 385.241 318.876 387.041 318.212Z" fill="#A96C60"/>
<path d="M387.619 345.658C388.87 345.168 389.984 344.418 391.189 343.841C392.364 343.279 393.539 342.702 394.744 342.183C395.904 341.678 397.063 341.188 398.254 340.755C399.52 340.279 400.802 339.716 402.099 339.356C404.448 338.707 405.547 341.837 403.319 342.716C402.114 343.192 400.802 343.51 399.55 343.885C398.284 344.26 397.018 344.591 395.736 344.909C394.5 345.211 393.249 345.457 391.998 345.716C390.64 345.99 389.236 346.077 387.909 346.466C387.344 346.639 387.07 345.875 387.619 345.658Z" fill="#A96C60"/>
<path d="M361.584 436.129C360.776 431.283 361.218 426.25 361.89 421.418C362.591 416.414 363.721 411.496 364.834 406.563C367.123 396.453 369.488 386.358 370.968 376.118C372.479 365.705 373.196 355.234 373.928 344.749C374.523 336.125 375.378 326.101 383.205 320.361C384.059 319.727 385.31 321.039 384.471 321.732C378.185 326.981 377.422 335.49 376.919 342.903C376.583 347.764 376.247 352.595 375.652 357.427C375.027 362.518 374.37 367.609 373.653 372.685C372.25 382.723 370.892 392.833 368.801 402.77C366.803 412.303 364.209 421.808 364.27 431.586C364.285 434.038 364.316 436.533 364.728 438.956C365.14 441.451 365.857 443.902 366.757 446.268C368.511 450.883 371.472 455.123 375.469 458.267C376.262 458.887 375.225 459.969 374.416 459.392C370.648 456.709 367.718 453.162 365.643 449.167C363.476 445.027 362.332 440.657 361.584 436.129Z" fill="#A96C60"/>
<path d="M380.112 495.548C349.169 485.943 356.111 436.807 362.596 409.505C365.205 398.573 367.738 391.131 367.738 391.131L430.783 390.944C431.119 397.492 431.378 403.693 431.531 409.505C433.987 502.558 412.916 505.731 380.112 495.548Z" fill="#CC4645"/>
<path d="M432.206 409.866H361.883C364.553 398.718 367.132 391.117 367.132 391.117L431.443 390.93C431.794 397.622 432.054 403.939 432.206 409.866Z" fill="#A62E2E"/>
<path d="M354.445 449.7C355.91 437.398 358.229 425.11 360.899 412.981C362.44 406.001 364.149 399.064 366.087 392.17C366.499 390.728 368.849 391.102 368.528 392.602C365.98 404.256 363.646 415.966 361.754 427.735C360.808 433.576 360.075 439.431 359.343 445.287C358.626 450.969 357.985 456.709 358.229 462.435C358.504 468.896 359.892 475.3 363.371 480.939C364.103 482.121 362.395 483.823 361.311 482.641C352.919 473.612 353.103 460.993 354.445 449.7Z" fill="#A62E2E"/>
<path d="M242.104 465.045C242.058 464.339 242.028 463.632 241.997 462.925C240.944 441.321 239.403 419.745 237.435 398.213C237.191 395.487 236.947 392.775 236.672 390.064C236.626 389.545 236.565 389.026 236.504 388.506C236.077 383.906 235.604 379.305 235.101 374.733C234.872 372.498 234.643 370.291 234.399 368.056C233.453 359.373 232.522 350.677 231.118 342.038C230.905 340.74 230.691 339.399 230.493 338.057C229.348 330.298 228.631 321.919 229.776 314.347V314.333C229.928 313.121 226.739 313.871 226.632 313.886C224.496 314.044 222.482 314.52 220.636 315.256L220.621 315.27C215.525 317.333 211.573 321.385 208.704 326.058C208.674 326.087 208.659 326.13 208.643 326.173C207.972 327.284 207.362 328.423 206.813 329.563C206.721 329.736 206.629 329.909 206.553 330.082C206.126 331.019 205.729 331.986 205.394 332.952C204.31 335.923 203.608 338.995 203.105 342.11C202.937 343.12 202.784 344.129 202.662 345.153C201.915 350.634 201.35 356.128 200.648 361.609C199.824 368.113 198.924 374.618 198.07 381.122C197.856 382.665 199.962 383.661 201.243 383.113C202.235 382.896 203.181 382.68 204.158 382.449H204.203C208.796 381.367 213.419 380.3 218.042 379.377C214.487 381.858 210.917 384.324 207.27 386.704C206.874 386.949 206.477 387.208 206.065 387.468C204.875 388.218 203.608 388.997 202.495 389.891C201.686 390.54 200.984 391.247 200.45 392.054C198.848 394.42 199.809 396.929 200.77 399.323V399.338C200.908 399.669 201.045 400.03 201.167 400.362C205.729 412.13 209.681 424.101 213.175 436.186C216.15 446.513 218.82 456.954 221.185 467.439C224.359 481.559 226.953 495.794 228.921 510.086C230.874 524.249 232.293 538.44 232.751 552.718C232.751 552.761 232.766 552.79 232.766 552.834C232.766 552.862 232.751 552.906 232.736 552.935C232.552 553.685 233.193 554.146 233.819 554.146C234.109 554.247 234.368 554.175 234.643 553.959C237.221 551.954 238.839 536.536 239.678 530.941C240.807 523.556 241.722 516.187 242.195 508.745C243.126 494.207 242.76 479.597 242.104 465.045Z" fill="#A62E2E"/>
<path d="M323.792 386.184C323.182 384.483 321.885 383.17 320.039 382.074C319.81 381.93 319.581 381.815 319.337 381.685C318.375 381.166 317.384 380.632 316.377 380.084C312.12 377.805 307.756 375.238 304.262 371.993C307.939 372.527 311.555 373.248 315.125 374.228C315.736 374.387 316.346 374.56 316.941 374.748C318.116 375.094 319.291 375.498 320.435 375.916C322.098 376.522 323.365 374.748 323.105 373.392C321.488 365.041 320.145 356.215 317.552 347.865C316.056 343.004 314.118 338.288 311.479 333.933C310.685 332.649 309.846 331.337 308.931 330.067C307.42 327.89 305.727 325.784 303.896 323.794C303.85 323.751 303.804 323.707 303.774 323.664C303.057 322.9 302.324 322.15 301.561 321.904H301.546C297.915 317.924 293.704 314.953 289.004 313.078C287.967 312.66 286.914 312.314 285.83 311.996C284.198 311.535 282.535 311.924 283.16 313.366V313.41C282.84 313.713 282.901 314.03 282.947 314.347C283.13 315.328 283.298 316.337 283.465 317.361C283.862 319.813 284.228 322.323 284.686 324.875V324.919C284.549 324.933 284.564 324.948 284.549 324.962C284.549 324.976 284.549 324.976 284.564 324.991C284.579 325.063 284.595 325.149 284.61 325.236C284.701 325.914 284.793 326.577 284.869 327.27C285.388 331.51 285.846 335.808 286.273 340.12C287.143 349.062 287.936 358.003 288.974 366.267C289.492 370.392 289.996 374.531 290.408 378.67C290.759 382.247 291.064 385.853 291.232 389.444C291.293 390.194 291.323 390.958 291.354 391.708C291.644 399.265 290.988 406.722 290.042 414.207C289.965 414.885 289.874 415.534 289.782 416.212C287.86 430.937 284.64 445.474 282.916 460.199C282.733 461.627 282.596 463.041 282.458 464.468C280.872 481.155 282.169 497.87 283.267 514.543C283.618 519.893 283.969 525.258 284.32 530.609C284.122 535.109 284.32 539.623 285.083 544.094C285.159 544.584 285.266 545.06 285.342 545.536C285.571 548.377 285.876 551.218 286.349 554.002C286.441 554.55 286.532 555.083 286.639 555.617C287.402 559.727 288.516 563.766 290.209 567.703C290.209 567.717 290.209 567.746 290.225 567.761C290.27 567.862 290.301 567.963 290.347 568.049C290.469 568.337 290.667 568.525 290.911 568.597C291.735 568.914 292.941 568.15 292.712 567.14C291.766 563.203 290.805 559.223 290.011 555.228C289.904 554.694 289.798 554.146 289.706 553.612C289.233 550.973 288.852 548.348 288.607 545.68C287.982 538.613 287.936 531.474 288.989 524.422C291.064 510.648 296.129 497.539 300.844 484.414C301.866 481.588 302.843 478.732 303.789 475.876C311.967 451.546 317.902 426.725 322.159 401.486C322.693 398.314 323.349 395.155 323.807 391.968C323.929 391.218 324.036 390.482 324.112 389.732C324.295 388.391 324.173 387.208 323.792 386.184Z" fill="#A62E2E"/>
<path d="M274.581 454.214C270.141 453.508 265.777 453.695 261.337 454.373C259.156 454.705 257.004 455.109 254.868 455.628C252.732 456.147 250.794 456.897 248.78 457.748C247.727 458.195 248.231 459.868 249.36 459.796C253.571 459.507 257.721 458.945 261.917 458.556C266.174 458.166 270.401 457.82 274.596 457.041C276.076 456.782 276.122 454.46 274.581 454.214Z" fill="#7B5F5C"/>
<path d="M269.238 462.29C268.536 462.146 267.834 462.089 267.132 462.089C266.476 462.074 265.805 462.031 265.149 462.117C264.37 462.204 263.623 462.305 262.86 462.464C262.204 462.593 261.578 462.824 260.937 462.997C260.068 463.242 259.488 464.021 259.61 464.872C259.717 465.694 260.495 466.386 261.395 466.372C262.036 466.358 262.677 466.401 263.302 466.343C264.096 466.271 264.889 466.17 265.667 466.026C266.293 465.91 266.903 465.694 267.514 465.492C268.215 465.261 268.917 465.031 269.558 464.67C270.565 464.108 270.428 462.536 269.238 462.29Z" fill="#7B5F5C"/>
<path d="M260.633 169.75C257.658 175.836 253.675 181.75 249.159 186.913C245.07 191.571 240.004 195.984 234.176 198.58C232.986 199.114 233.794 201.018 235.045 200.614C241.789 198.422 247.374 194.701 251.86 189.465C256.742 183.74 259.427 177.134 262.113 170.327C262.418 169.519 261.014 168.971 260.633 169.75Z" fill="#A06F52"/>
<path d="M251.508 174.827C248.426 178.836 243.94 182.211 239.759 185.182C235.594 188.139 231.139 190.778 226.653 193.273C217.147 198.566 207.672 203.57 199.906 211.113C198.868 212.108 200.409 213.507 201.508 212.628C210.113 205.748 220.55 201.046 230.117 195.508C234.618 192.898 239.027 190.114 242.979 186.797C246.961 183.466 249.891 179.716 252.698 175.476C253.171 174.755 252.012 174.178 251.508 174.827Z" fill="#A06F52"/>
<path d="M210.225 215.858C205.083 218.266 200.201 221.035 196.386 225.16C192.297 229.559 190.665 234.967 188.513 240.347C187.293 243.404 185.92 246.39 184.318 249.288C182.975 251.726 181.434 254.221 180.839 256.947C179.603 262.543 181.739 268.066 182.181 273.619C182.456 276.907 182.151 280.051 180.747 283.094C179.389 286.022 177.482 288.69 175.59 291.329C175.087 292.022 176.277 292.887 176.856 292.238C180.412 288.229 184.089 284.003 185.431 278.811C186.866 273.316 184.913 267.908 184.302 262.442C183.997 259.615 184.012 256.889 184.775 254.12C185.614 251.091 187.003 248.164 188.407 245.337C189.765 242.611 191.29 239.972 192.831 237.347C194.342 234.765 195.761 232.083 197.485 229.617C200.994 224.583 206.197 220.675 210.759 216.536C211.141 216.189 210.668 215.641 210.225 215.858Z" fill="#A06F52"/>
<path d="M195.582 247.01C195.918 246.202 194.484 245.654 194.087 246.433C192.088 250.356 190.41 254.178 189.983 258.548C189.54 262.889 190.089 267.23 191.768 271.311C192.347 272.71 194.423 272.22 194.163 270.72C193.477 266.783 193.171 262.759 193.4 258.764C193.629 254.827 194.072 250.702 195.582 247.01Z" fill="#A06F52"/>
<path d="M238.862 165.034C236.467 167.486 233.598 169.562 230.623 171.351C229.128 172.259 227.586 173.053 226.03 173.846C224.428 174.653 222.765 175.288 221.3 176.298C220.492 176.846 220.675 178.201 221.834 178.187C223.848 178.158 225.603 177.451 227.434 176.701C229.158 175.995 230.836 175 232.362 173.947C233.888 172.894 235.444 171.769 236.711 170.442C238.023 169.072 239.259 167.63 240.434 166.144C241.074 165.308 239.61 164.269 238.862 165.034Z" fill="#A06F52"/>
<path d="M304.628 196.676C303.27 195.999 302.019 195.162 300.783 194.326C300.615 194.21 300.447 194.095 300.28 193.994C300.219 193.951 300.203 193.936 300.173 193.922C300.158 193.922 300.173 193.922 300.142 193.893C299.837 193.677 299.547 193.446 299.257 193.201C298.678 192.725 298.113 192.22 297.533 191.73C296.374 190.749 295.367 189.624 294.222 188.614C293.093 187.619 292.025 186.595 291.11 185.413C290.438 184.547 288.913 185.312 289.538 186.263C290.408 187.576 291.094 188.96 291.827 190.345C292.605 191.802 293.749 193.157 294.817 194.441C296.984 197.022 299.898 198.955 303.24 199.878C305.238 200.441 306.49 197.599 304.628 196.676Z" fill="#A06F52"/>
<path d="M312.563 187.59C307.65 186.725 303.164 185.211 298.938 182.672C294.665 180.105 290.866 176.803 287.509 173.24C286.792 172.476 285.312 173.514 285.968 174.351C289.264 178.519 292.56 182.658 296.985 185.845C301.242 188.903 306.689 191.239 312.12 190.763C313.921 190.605 314.607 187.951 312.563 187.59Z" fill="#A06F52"/>
<path d="M324.491 259.542C320.997 253.499 318.495 247.298 317.32 240.476C316.725 237.044 316.45 233.568 316.252 230.092C316.053 226.674 315.718 223.256 315.763 219.824C315.779 218.626 313.917 218.655 313.81 219.824C313.52 223.256 312.986 226.645 312.925 230.092C312.864 233.51 313.047 236.899 313.505 240.289C314.375 246.75 316.419 252.793 319.532 258.591C325.742 270.143 336.087 281.392 333.203 295.266C332.959 296.406 334.714 296.867 335.065 295.728C339.032 282.935 330.716 270.316 324.491 259.542Z" fill="#A06F52"/>
<path d="M326.243 285.734C325.648 282.792 324.656 279.936 323.497 277.153C322.337 274.383 320.583 271.86 319.148 269.206C318.843 268.629 317.974 269.119 318.248 269.696C319.56 272.451 320.033 275.234 320.75 278.148C321.437 280.917 321.88 283.715 322.261 286.527C323.009 292.08 322.81 297.661 323.222 303.228C323.329 304.67 325.389 304.959 325.862 303.545C327.784 297.906 327.403 291.474 326.243 285.734Z" fill="#A06F52"/>
<path d="M302.737 287.623C301.806 290.191 301.211 292.83 301.165 295.541C301.15 296.854 301.257 298.238 301.486 299.522C301.73 300.877 302.386 302.118 302.569 303.473C302.676 304.223 303.851 304.281 303.851 303.473C303.836 302.147 304.339 300.95 304.583 299.666C304.827 298.368 304.98 297.012 305.117 295.7C305.392 293.118 305.407 290.551 305.453 287.97C305.483 286.412 303.241 286.268 302.737 287.623Z" fill="#A06F52"/>
<path d="M206.154 290.161C205.513 293.161 204.995 296.146 204.827 299.204C204.659 302.29 204.812 305.319 205.132 308.391C205.285 309.833 207.527 309.905 207.558 308.391C207.619 305.391 207.741 302.391 207.863 299.377C207.97 296.392 207.97 293.392 208.107 290.392C208.168 289.339 206.383 289.094 206.154 290.161Z" fill="#A06F52"/>
<path d="M213.429 291.113C213.2 291.95 212.971 292.772 212.819 293.623C212.651 294.56 212.544 295.483 212.422 296.421C212.209 298.137 212.071 299.824 211.934 301.54C211.812 303.084 214.39 303.372 214.757 301.887C215.596 298.44 216.404 295.022 216.588 291.488C216.679 289.758 213.887 289.455 213.429 291.113Z" fill="#A06F52"/>
<path d="M362.453 365.879C362.575 365.071 361.309 364.696 361.11 365.547C359.279 373.522 356.975 381.426 354.854 389.358C355.511 380.113 355.877 370.854 355.861 361.595C355.846 352.985 355.221 344.49 354.702 335.909C354.641 334.986 353.161 334.972 353.176 335.909C353.222 343.438 352.779 350.995 352.52 358.509C352.261 365.936 351.94 373.349 351.421 380.762C350.369 395.675 348.889 410.573 346.981 425.414C346.447 429.596 345.807 433.75 345.212 437.918C344.647 441.985 343.609 446.297 343.701 450.407C343.716 450.955 344.616 451.273 344.876 450.696C346.371 447.335 346.981 443.514 347.775 439.966C348.583 436.403 349.224 432.798 349.88 429.207C350.918 423.423 351.894 417.611 352.673 411.785C358.287 397.088 360.164 381.267 362.453 365.879Z" fill="#A62E2E"/>
<path d="M175.612 413.125C174.422 396.51 173.674 379.795 171.767 363.238C170.76 354.498 169.783 345.787 166.289 337.552C166.061 337.019 165.176 337.192 165.343 337.783C167.541 345.412 168.792 353.388 169.249 361.277C169.722 369.368 170.226 377.444 170.852 385.535C171.492 393.684 172.118 401.847 172.759 409.995C172.301 407.918 171.828 405.856 171.325 403.794C170.119 398.919 168.838 394.073 167.403 389.256C165.939 384.324 164.031 379.521 162.429 374.617C162.124 373.68 160.598 374.041 160.858 375.007C162.17 379.867 163.07 384.8 164.26 389.674C165.45 394.549 166.64 399.424 167.785 404.313C168.929 409.188 170.073 414.077 171.202 418.966C171.736 421.302 172.255 423.624 172.805 425.961C173.247 427.821 173.659 429.984 174.452 431.831C174.544 432.927 174.62 434.008 174.712 435.104C175.444 444.537 176.268 453.954 177.168 463.372C177.275 464.439 179.014 464.468 178.953 463.372C178.053 446.628 176.817 429.884 175.612 413.125Z" fill="#A62E2E"/>
<path d="M161.664 618.931C159.787 618.369 157.91 617.777 156.064 617.172C152.997 616.162 149.961 615.095 146.94 613.955C143.217 612.556 139.524 611.057 135.878 609.456C134.169 608.706 132.475 607.941 130.812 607.163C128.676 616.148 126.983 625.234 125.686 634.377C125.457 635.877 126.098 637.132 127.684 637.637C133.528 639.497 139.402 641.228 145.322 642.829C148.939 643.809 152.57 644.747 156.217 645.612C157.925 646.03 159.619 646.434 161.328 646.824C163.708 647.372 166.088 647.891 168.469 648.396C175.243 649.809 182.063 651.064 188.914 652.146C192.393 652.708 195.902 653.198 199.396 653.66C202.448 654.049 206.43 655.189 209.329 653.79C212.06 652.463 212.777 649.65 213.494 647.054C214.379 643.781 215.234 640.478 216.073 637.19C216.775 634.435 217.477 631.709 218.194 628.955C199 627.743 179.973 624.44 161.664 618.931ZM367.416 619.58C365.813 614.071 364.135 608.576 362.38 603.11C359.1 604.393 355.82 605.648 352.524 606.874C346.344 609.124 340.089 611.258 333.787 613.234C323.915 616.335 313.891 619.061 303.76 621.368C305.225 626.676 306.72 631.969 308.246 637.262C309.054 640.088 309.878 642.93 310.687 645.756C311.358 648.093 311.801 651.208 314.303 652.492C316.973 653.862 319.781 652.564 322.329 651.612C325.121 650.559 327.898 649.477 330.644 648.352C340.638 644.228 350.342 639.483 359.649 634.103C360.519 633.613 361.373 633.108 362.228 632.603C364.517 631.248 366.836 629.777 367.812 627.282C368.835 624.729 368.133 622.09 367.416 619.58Z" fill="#A62E2E"/>
<path d="M342.828 549.07C337.32 550.959 331.797 552.776 326.335 554.767C323.863 555.661 321.345 556.786 318.736 557.29C316.295 557.766 315.044 557.103 314.052 554.954C313.549 553.844 313.06 552.762 312.389 551.738C312.16 551.406 310.146 549.3 310.207 549.026C310.283 548.709 311.992 548.204 312.603 547.959C314.006 547.411 315.41 546.849 316.814 546.301C322.322 544.137 327.738 541.801 333.231 539.609C334.299 539.176 333.552 537.431 332.453 537.82C325.648 540.2 318.797 542.45 312.008 544.858C309.749 545.652 305.508 546.272 305.66 549.272C305.737 550.786 306.972 551.723 307.842 552.848C308.727 553.988 309.353 555.243 309.917 556.541C311.016 559.079 312.664 561.069 315.685 561.473C318.431 561.848 321.071 560.867 323.558 559.858C330.347 557.132 337.076 554.262 343.82 551.435C345.254 550.858 344.278 548.565 342.828 549.07Z" fill="#A62E2E"/>
<path d="M203.123 556.396C188.354 554.276 173.905 550.324 160.295 544.483C158.616 543.762 157.152 546.098 158.845 546.877C171.906 552.906 185.745 557.247 200.041 559.713C199.538 561.328 199.05 562.944 198.561 564.559C198.241 565.641 197.905 566.722 197.6 567.804C197.341 568.698 197.173 570.429 196.41 571.107C195.189 572.188 192.367 570.919 191.054 570.53C188.613 569.809 186.172 569.131 183.731 568.467C178.955 567.169 174.149 565.943 169.327 564.775C165.665 563.895 161.698 562.987 158.998 560.333C157.548 558.92 154.741 560.795 156.007 562.496C158.799 566.261 163.056 567.818 167.588 569.03C173.371 570.573 179.214 571.914 185.058 573.241C187.667 573.832 190.322 574.496 192.992 574.856C195.067 575.13 197.386 574.957 198.958 573.501C200.682 571.929 201.155 569.188 201.842 567.112C202.772 564.314 203.718 561.53 204.588 558.718C204.848 557.824 204.191 556.554 203.123 556.396Z" fill="#A62E2E"/>
</g>
<defs>
<clipPath id="clip0_925_552">
<rect width="474" height="598.797" fill="white" transform="translate(0 157.202)"/>
</clipPath>
</defs>
</svg>
